<svg width="32" height="32" viewBox="0 0 32 32" fill="none" xmlns="http://www.w3.org/2000/svg">
<path fill-rule="evenodd" clip-rule="evenodd" d="M31 16.5C31 25.0603 24.0603 32 15.5 32C6.93958 32 0 25.0603 0 16.5C0 7.93958 6.93958 1 15.5 1C24.0603 1 31 7.93958 31 16.5ZM16.0554 12.4428C14.5478 13.0698 11.5347 14.3677 7.01618 16.3363C6.28243 16.6282 5.89806 16.9137 5.86308 17.1927C5.80394 17.6645 6.39466 17.8502 7.19905 18.1032C7.30848 18.1376 7.42185 18.1732 7.53807 18.2109C8.32947 18.4682 9.39405 18.7692 9.94748 18.7811C10.4495 18.792 11.0098 18.5851 11.6284 18.1602C15.8503 15.3104 18.0296 13.87 18.1663 13.8388C18.2629 13.8169 18.3966 13.7894 18.4873 13.87C18.578 13.9506 18.569 14.1031 18.5594 14.144C18.501 14.3935 16.1822 16.5493 14.9821 17.6648C14.6081 18.0126 14.3428 18.2592 14.2885 18.3157C14.167 18.4418 14.0432 18.5612 13.9241 18.6759C13.1889 19.3847 12.6375 19.9162 13.9546 20.7842C14.5877 21.2013 15.0941 21.5462 15.5994 21.8903C16.1512 22.2662 16.7016 22.6409 17.4138 23.1078C17.5951 23.2267 17.7684 23.3502 17.9372 23.4705C18.5794 23.9284 19.1563 24.3397 19.8691 24.274C20.2833 24.236 20.7111 23.8465 20.9284 22.685C21.4419 19.9399 22.4513 13.9921 22.6846 11.5413C22.705 11.3265 22.6793 11.0517 22.6587 10.9311C22.6379 10.8104 22.5948 10.6385 22.438 10.5113C22.2523 10.3606 21.9657 10.3288 21.8373 10.331C21.2544 10.3414 20.3599 10.6524 16.0554 12.4428Z" fill="#666666"/>
</svg>
